# xmcd
#
# Track frame offsets:
# 150
# 13790
# 27592
# 42030
# 54390
# 65520
# 82557
# 99592
# 110725
# 124260
# 142482
# 162542
# 178705
#
# Disc length: 2618 seconds
#
#
# Revision: 2
# Processed by: cddbd v1.5.2PL0 Copyright (c) Steve Scherf et al.
# Submitted via: FreeRIP 2.951 
#
DISCID=b60a380d
DTITLE=Koktejl - Country Koktejl
DYEAR=1997
DGENRE=Country
TTITLE0=Prodavac
TTITLE1=Nakladak
TTITLE2=Frankie Dlouhan
TTITLE3=Haj Modrinu
TTITLE4=Zanovni Vuz
TTITLE5=Dnes Mame Party
TTITLE6=Konim Zatleskam
TTITLE7=Damsky Mejdan
TTITLE8=To Je Lijak
TTITLE9=Az Skonci Pristi Tejden
TTITLE10=La Paloma
TTITLE11=Zlaty Udoli
TTITLE12=Ridi Nas Buh
EXTD=
EXTT0=
EXTT1=
EXTT2=
EXTT3=
EXTT4=
EXTT5=
EXTT6=
EXTT7=
EXTT8=
EXTT9=
EXTT10=
EXTT11=
EXTT12=
PLAYORDER=
